<?xml version="1.0" encoding="UTF-8"?>
<svg width="613px" height="548px" viewBox="0 0 613 548" version="1.1" xmlns="http://www.w3.org/2000/svg" xmlns:xlink="http://www.w3.org/1999/xlink">
    <!-- Generator: Sketch 42 (36781) - http://www.bohemiancoding.com/sketch -->
    <title>Illustration/ SCR02/ Avatar behind desk</title>
    <desc>Created with Sketch.</desc>
    <defs>
        <rect id="path-1" x="0" y="0" width="4449" height="1024" rx="100"></rect>
        <mask id="mask-2" maskContentUnits="userSpaceOnUse" maskUnits="objectBoundingBox" x="0" y="0" width="4449" height="1024" fill="white">
            <use xlink:href="#path-1"></use>
        </mask>
        <filter x="-50%" y="-50%" width="200%" height="200%" filterUnits="objectBoundingBox" id="filter-3">
            <feOffset dx="4" dy="8" in="SourceAlpha" result="shadowOffsetOuter1"></feOffset>
            <feColorMatrix values="0 0 0 0 0   0 0 0 0 0   0 0 0 0 0  0 0 0 0.15 0" type="matrix" in="shadowOffsetOuter1" result="shadowMatrixOuter1"></feColorMatrix>
            <feMerge>
                <feMergeNode in="shadowMatrixOuter1"></feMergeNode>
                <feMergeNode in="SourceGraphic"></feMergeNode>
            </feMerge>
        </filter>
        <rect id="path-4" x="0" y="0" width="172.95138" height="320.155606" rx="86.4756899"></rect>
        <path d="M1.74794937,8.68156187 C-1.47549713,2.51340561 1.348355,-1.01121379 8.10094675,0.679822964 C8.10094675,0.679822964 29.4257556,7.19450801 51.3449409,7.19450801 C73.2641261,7.19450801 97.5330601,0.470466038 97.5330601,0.470466038 C104.290964,-1.16282722 107.093019,2.4691197 103.78387,8.59700648 L99.7111652,16.1388481 C96.4054885,22.2603057 88.3200543,28.828034 81.6176202,30.7277726 C81.6176202,30.7277726 62.5882587,36.7814686 52.5815872,36.7814686 C42.5749158,36.7814686 23.5455543,30.7277726 23.5455543,30.7277726 C16.858442,28.7919897 8.82123491,22.2164943 5.60090029,16.0542927 L1.74794937,8.68156187 Z" id="path-6"></path>
        <path d="M3.23815636,13.0052518 C4.10306114,9.46494851 7.72344559,6.12859291 11.3270273,5.59512408 C11.3270273,5.59512408 43.2377107,9.63626586e-16 90.0787765,0 C136.919842,0 168.843146,5.59691463 168.843146,5.59691463 C172.438705,6.148123 176.054114,9.46285399 176.919531,13.0052518 L179.79269,24.7659153 C180.657595,28.3062185 178.454294,30.6881239 174.84789,30.1159972 C174.84789,30.1159972 135.718698,23.0823799 90.0787765,23.0823799 C44.4388554,23.0823799 5.30978005,30.1159972 5.30978005,30.1159972 C1.71394721,30.7015318 -0.500419091,28.3083131 0.364997382,24.7659153 L3.23815636,13.0052518 Z" id="path-8"></path>
        <ellipse id="path-10" cx="13.2115637" cy="13.1899314" rx="13.2115637" ry="13.1899314"></ellipse>
        <ellipse id="path-12" cx="13.2115637" cy="13.1899314" rx="13.2115637" ry="13.1899314"></ellipse>
        <rect id="path-14" x="46" y="54" width="125" height="35"></rect>
        <filter x="-50%" y="-50%" width="200%" height="200%" filterUnits="objectBoundingBox" id="filter-15">
            <feOffset dx="4" dy="8" in="SourceAlpha" result="shadowOffsetOuter1"></feOffset>
            <feColorMatrix values="0 0 0 0 0   0 0 0 0 0   0 0 0 0 0  0 0 0 0.15 0" type="matrix" in="shadowOffsetOuter1"></feColorMatrix>
        </filter>
        <rect id="path-16" x="0" y="0" width="12" height="75" rx="6"></rect>
        <path d="M8,33.9981014 C8,32.8945804 8.89505147,32 9.99753791,32 L106.002462,32 C107.105672,32 108,32.8867064 108,33.9981014 L108,38.0018986 C108,39.1054196 107.104949,40 106.002462,40 L9.99753791,40 C8.89432819,40 8,39.1132936 8,38.0018986 L8,33.9981014 Z M14,25.9981014 C14,24.8945804 14.8950515,24 15.9975379,24 L112.002462,24 C113.105672,24 114,24.8867064 114,25.9981014 L114,30.0018986 C114,31.1054196 113.104949,32 112.002462,32 L15.9975379,32 C14.8943282,32 14,31.1132936 14,30.0018986 L14,25.9981014 Z M6,17.9981014 C6,16.8945804 6.89505147,16 7.99753791,16 L104.002462,16 C105.105672,16 106,16.8867064 106,17.9981014 L106,22.0018986 C106,23.1054196 105.104949,24 104.002462,24 L7.99753791,24 C6.89432819,24 6,23.1132936 6,22.0018986 L6,17.9981014 Z M0,9.99810135 C0,8.89458045 0.895051472,8 1.99753791,8 L98.0024621,8 C99.1056718,8 100,8.88670635 100,9.99810135 L100,14.0018986 C100,15.1054196 99.1049485,16 98.0024621,16 L1.99753791,16 C0.894328186,16 0,15.1132936 0,14.0018986 L0,9.99810135 Z M14,1.99810135 C14,0.894580447 14.8950515,0 15.9975379,0 L112.002462,0 C113.105672,0 114,0.886706352 114,1.99810135 L114,6.00189865 C114,7.10541955 113.104949,8 112.002462,8 L15.9975379,8 C14.8943282,8 14,7.11329365 14,6.00189865 L14,1.99810135 Z" id="path-18"></path>
        <filter x="-50%" y="-50%" width="200%" height="200%" filterUnits="objectBoundingBox" id="filter-20">
            <feOffset dx="4" dy="8" in="SourceAlpha" result="shadowOffsetOuter1"></feOffset>
            <feColorMatrix values="0 0 0 0 0   0 0 0 0 0   0 0 0 0 0  0 0 0 0.15 0" type="matrix" in="shadowOffsetOuter1" result="shadowMatrixOuter1"></feColorMatrix>
            <feMerge>
                <feMergeNode in="shadowMatrixOuter1"></feMergeNode>
                <feMergeNode in="SourceGraphic"></feMergeNode>
            </feMerge>
        </filter>
        <ellipse id="path-21" cx="71.0673254" cy="70.8562876" rx="71.0673254" ry="70.8562876"></ellipse>
    </defs>
    <g id="Symbols" stroke="none" stroke-width="1" fill="none" fill-rule="evenodd">
        <g id="Boxes" transform="translate(-8139.000000, -5816.000000)" stroke="#F6A623" stroke-width="50">
            <g id="Group-15-Copy" transform="translate(7776.000000, 5746.000000)">
                <use id="Rectangle-30-Copy-6" mask="url(#mask-2)" xlink:href="#path-1"></use>
            </g>
        </g>
        <g id="Illustration/-SCR02/-Avatar-behind-desk">
            <g id="Illustratie" filter="url(#filter-3)">
                <g id="Avatar/-Basic" transform="translate(116.000000, 0.000000)">
                    <g id="Group">
                        <g id="Body" transform="translate(45.465177, 57.556064)">
                            <mask id="mask-5" fill="white">
                                <use xlink:href="#path-4"></use>
                            </mask>
                            <use id="Rectangle-10" fill="#008EFF" xlink:href="#path-4"></use>
                            <rect id="Rectangle" fill-opacity="0.15" fill="#000000" mask="url(#mask-5)" x="85.8751643" y="-12.590389" width="127.911958" height="431.670481"></rect>
                        </g>
                        <g id="Armen-&amp;-Benen" transform="translate(0.438896, 91.318078)" fill-rule="nonzero">
                            <path d="M195.907583,106.838692 C196.219862,107.024087 196.732298,107.320626 197.429289,107.712643 C198.537748,108.336087 199.798287,109.022827 201.195652,109.757232 C205.154405,111.837813 209.465223,113.912942 214.014229,115.857495 C221.837085,119.201513 229.564632,121.820592 237.035969,123.434099 C247.261677,125.642439 256.618926,125.904393 265.046456,123.506871 C276.185628,120.337923 284.636846,112.676953 288.823746,101.166388 C290.360615,96.9412511 291.971749,92.3804709 293.649444,87.5147558 C294.855794,84.0160518 296.092443,80.3715903 297.355603,76.5959551 C301.478708,64.2718296 305.707242,51.0901199 309.813815,37.9115354 C311.25037,33.3014236 312.569456,29.0197815 313.742267,25.1751733 C314.153365,23.8275475 314.517031,22.6300858 314.829656,21.5963803 C314.939462,21.2333013 315.03515,20.9162739 315.116269,20.6469978 C317.598513,12.3774236 313.09681,4.0146076 305.162215,1.63314578 C297.227621,-0.748316039 288.864805,3.75338745 286.483343,11.6879819 C286.313344,12.2526748 286.220791,12.5593138 286.114153,12.9119176 C285.808364,13.9230203 285.451667,15.0975359 285.047698,16.4217927 C283.891745,20.2111348 282.590184,24.4358945 281.172165,28.986523 C277.122811,41.9814821 272.955187,54.9733162 268.905553,67.0778316 C267.670617,70.769106 266.463343,74.3269982 265.288007,77.7357533 C263.662656,82.4496568 262.106975,86.8534612 260.630919,90.9114148 C259.786423,93.2330908 258.854253,94.0780963 256.837572,94.6518157 C253.858904,95.4992075 249.196546,95.3686859 243.368763,94.1101204 C237.978837,92.946114 231.998743,90.9192947 225.806079,88.2721314 C222.040103,86.6622988 218.439724,84.9291581 215.15242,83.201468 C214.013666,82.6029793 213.002379,82.0520314 212.135976,81.5647297 C211.64805,81.2902995 211.337872,81.1108042 211.222509,81.0423149 C204.099036,76.8132151 194.895957,79.1595681 190.666857,86.2830409 C186.437758,93.4065137 188.784111,102.609592 195.907583,106.838692 Z" id="Path-4" fill="#0078D9"></path>
                            <path d="M30.7139079,196.425562 C30.4803044,195.981329 30.2748836,195.342135 30.1395077,194.41311 C29.6380268,190.97167 30.3735611,185.73602 33.0029472,178.50735 C34.6506602,173.97748 36.6729982,169.082609 39.0311262,163.882919 C41.7860763,157.808233 44.9598925,151.402972 48.4704772,144.773179 C53.1631789,135.910941 58.2079737,127.107421 63.2526144,118.786589 C65.0169611,115.876405 66.6526444,113.238605 68.1160254,110.924805 C68.6239744,110.12167 69.0726916,109.41853 69.4567358,108.821799 C69.6803998,108.474267 69.8286072,108.24581 69.8959234,108.142823 C74.4284669,101.208474 72.4814187,91.9127203 65.5470694,87.3801768 C58.6127202,82.8476333 49.3169669,84.7946815 44.7844234,91.7290308 C44.3987801,92.3190274 43.7101387,93.3890453 42.7614254,94.889087 C41.1997754,97.358263 39.46471,100.156332 37.5990195,103.233677 C32.2721255,112.020069 26.9453857,121.315603 21.9579884,130.734378 C18.1757741,137.877147 14.7340647,144.823059 11.709517,151.49221 C9.04977666,157.356958 6.73766051,162.953208 4.81011979,168.252376 C-3.35689266,190.70501 -0.836268769,208.002931 10.3888366,218.640265 C14.6559186,222.683913 19.0981972,224.80821 22.8645596,225.725248 C30.913678,227.685055 39.0275151,222.748692 40.9873219,214.699574 C42.8576472,207.017965 38.4471624,199.277412 31.0443489,196.883152 C30.9279609,196.77335 30.8288011,196.64405 30.7139079,196.425562 Z" id="Path-4-Copy" fill="#008EFF"></path>
                            <path d="M98.0677994,362.316487 C97.74584,362.053118 96.8941981,361.287571 95.6929972,360.07825 C93.5780576,357.949013 91.4443705,355.478731 89.4665855,352.740998 C81.6791786,341.961344 78.8555505,330.979267 82.8494336,319.99934 C83.1180158,319.260958 83.3882295,318.528565 83.6600326,317.802145 C88.4644453,304.961876 93.5553419,294.475108 98.573083,286.188592 C100.26439,283.395494 101.802158,281.097542 103.141734,279.27614 C103.574255,278.688047 103.940384,278.212328 104.23454,277.846698 C109.815034,271.465271 109.191462,261.988289 102.96163,256.527671 C96.7317979,251.067054 87.2548162,251.690626 81.7941988,257.920458 C81.1474283,258.658336 80.1917542,259.846221 78.974169,261.501754 C77.1059059,264.042003 75.0692242,267.085504 72.9111238,270.649485 C66.9305585,280.526051 61.0231487,292.694759 55.5624755,307.288949 C55.2585196,308.101301 54.9565488,308.919769 54.6566062,309.744367 C50.3587525,321.559965 50.0079365,333.503542 52.9846608,345.081063 C55.32465,354.182099 59.5756048,362.594652 65.1484581,370.308829 C68.0981671,374.39194 71.2439381,378.033965 74.4084564,381.219875 C75.5368887,382.355935 76.5994862,383.364007 77.5747264,384.240658 C78.2141236,384.815417 78.7206833,385.248914 79.0729315,385.53706 C85.4851156,390.782348 94.9353638,389.836391 100.180652,383.424207 C105.42594,377.012023 104.479983,367.561775 98.0677994,362.316487 Z" id="Path-4-Copy-2" fill="#008EFF"></path>
                            <path d="M181.674638,386.361831 C182.024742,386.052187 182.542885,385.574534 183.20559,384.93527 C184.228903,383.948153 185.347537,382.81388 186.538001,381.53823 C189.886935,377.949653 193.219478,373.879757 196.343823,369.362549 C208.817036,351.328656 214.685677,331.461391 209.378284,310.834298 C208.092604,305.837525 206.720766,301.096376 205.272732,296.605471 C201.773445,285.752855 197.968181,276.748922 194.089108,269.471615 C192.666022,266.801845 191.311526,264.516092 190.055176,262.598969 C189.204238,261.300483 188.510107,260.338481 188.002595,259.697303 C182.861066,253.201625 173.427246,252.103871 166.931568,257.2454 C160.43589,262.386929 159.338136,271.820749 164.479665,278.316427 C164.54732,278.421458 164.733379,278.691897 164.963164,279.042537 C165.724151,280.203762 166.617543,281.711389 167.615261,283.58315 C170.65277,289.281647 173.764087,296.643576 176.720276,305.811843 C177.983264,309.728846 179.18809,313.892795 180.324612,318.309867 C183.101057,329.100475 179.661909,340.743114 171.670511,352.297155 C169.42674,355.541221 167.00773,358.495457 164.605112,361.070001 C163.782532,361.951443 163.031912,362.712557 162.377688,363.34364 C162.033871,363.675295 161.83307,363.860405 161.799738,363.889885 C155.594281,369.378188 155.012913,378.857852 160.501215,385.063308 C165.989517,391.268765 175.469182,391.850133 181.674638,386.361831 Z" id="Path-4-Copy-3" fill="#0078D9"></path>
                        </g>
                        <g id="Oog" transform="translate(76.692510, 82.137300)">
                            <ellipse id="Oval-19" fill="#FFFFFF" cx="54.6478318" cy="54.5583524" rx="54.6478318" ry="54.5583524"></ellipse>
                            <ellipse id="Oval-19" fill="#FF5722" cx="54.4099772" cy="66.9112762" rx="26.1852728" ry="26.1423975"></ellipse>
                            <ellipse id="Oval-19" fill="#212121" cx="54.1347781" cy="66.6365278" rx="18.7037663" ry="18.6731411"></ellipse>
                            <ellipse id="Oval-19" fill="#FFFFFF" cx="41.4362681" cy="53.3592677" rx="4.20367937" ry="4.19679634"></ellipse>
                        </g>
                        <ellipse id="Oval-2" fill="#006FA3" cx="126.235874" cy="198.748284" rx="2.70236531" ry="2.6979405"></ellipse>
                        <ellipse id="Oval-2-Copy" fill="#006FA3" cx="135.844284" cy="198.748284" rx="2.70236531" ry="2.6979405"></ellipse>
                        <g id="Mond" transform="translate(79.695138, 201.446224)">
                            <mask id="mask-7" fill="white">
                                <use xlink:href="#path-6"></use>
                            </mask>
                            <use id="Rectangle-11" fill="#005C87" xlink:href="#path-6"></use>
                            <ellipse id="Oval-18" fill="#FF5722" mask="url(#mask-7)" cx="52.2457293" cy="37.4713959" rx="22.8199737" ry="15.8878719"></ellipse>
                            <rect id="Rectangle-12" fill="#FFFFFF" mask="url(#mask-7)" x="30.0262812" y="-3.597254" width="45.6399474" height="14.9885584" rx="7.49427918"></rect>
                        </g>
                        <path d="M132.24113,359.331731 C166.89972,359.331731 194.996058,331.281398 194.996058,296.679557 C194.996058,234.989024 166.89972,273.297406 132.24113,273.297406 C97.5825405,273.297406 69.4862024,233.190397 69.4862024,296.679557 C69.4862024,331.285045 97.5825405,359.331731 132.24113,359.331731 Z" id="Oval-20" fill-opacity="0.15" fill="#FFFFFF"></path>
                        <ellipse id="Oval-4" fill="#268CDE" cx="130.739816" cy="334.544622" rx="7.80683311" ry="7.79405034"></ellipse>
                        <g id="Band" transform="translate(43.063075, 88.732265)">
                            <mask id="mask-9" fill="white">
                                <use xlink:href="#path-8"></use>
                            </mask>
                            <use id="Rectangle-13" fill="#B3E7FF" xlink:href="#path-8"></use>
                            <path d="M-3.42988761,20.2017527 L-8.01014206,24.2845637 C-7.94956618,24.2694445 -7.80870204,24.2350353 -7.58922603,24.1826151 C-7.20965293,24.0919568 -6.75480441,23.9858407 -6.22635759,23.8655452 C-5.73754905,23.754273 -5.22062345,23.6387577 -4.67602125,23.5193347 L-3.42988761,20.2017527 Z M189.007518,24.2041792 C189.246034,24.2575022 189.400797,24.2928362 189.469762,24.3089019 L187.427903,23.4518003 L188.401243,24.0701842 C188.619596,24.117944 188.821751,24.1626488 189.007518,24.2041792 Z M207.245248,36.0421893 L204.184494,30.4713959 L204.184494,34.0976258 L207.245248,36.0421893 Z M-0.835785991,22.7087631 C5.08712993,21.501984 11.8937285,20.2928286 19.4764177,19.162937 C41.173958,15.9298007 64.6959673,13.989016 89.1780552,13.989016 C113.670305,13.989016 137.769831,15.9315819 160.419978,19.1686253 C168.341395,20.3007137 175.510242,21.5126093 181.795295,22.7226185 C183.985972,23.1443713 185.906877,23.53505 187.541641,23.8844264 C187.851473,23.9506428 188.138118,24.0126317 188.401243,24.0701842 L204.184494,34.0976258 L204.184494,44.7045571 L210.784494,44.8604119 L210.784494,30.4713959 L190.967148,17.8810069 C190.967148,17.8810069 145.927727,7.38901602 89.1780552,7.38901602 C32.4283837,7.38901602 -9.60840999,17.8810069 -9.60840999,17.8810069 L-17.7155059,39.4645309 L-10.7272616,39.6295538 L-4.67602125,23.5193347 C-3.51937643,23.2656999 -2.23789152,22.9944386 -0.835785991,22.7087631 Z M204.184494,30.4713959 L207.245248,36.0421893 L204.184494,34.0976258 L204.184494,30.4713959 Z M189.007518,24.2041792 C189.246034,24.2575022 189.400797,24.2928362 189.469762,24.3089019 L187.427903,23.4518003 L188.401243,24.0701842 C188.619596,24.117944 188.821751,24.1626488 189.007518,24.2041792 Z M-3.42988761,20.2017527 L-8.01014206,24.2845637 C-7.94956618,24.2694445 -7.80870204,24.2350353 -7.58922603,24.1826151 C-7.20965293,24.0919568 -6.75480441,23.9858407 -6.22635759,23.8655452 C-5.73754905,23.754273 -5.22062345,23.6387577 -4.67602125,23.5193347 L-3.42988761,20.2017527 Z M204.184494,44.7045571 L210.784494,44.8604119 L210.784494,30.4713959 L190.967148,17.8810069 C190.967148,17.8810069 145.927727,7.38901602 89.1780552,7.38901602 C32.4283837,7.38901602 -9.60840999,17.8810069 -9.60840999,17.8810069 L-17.7155059,39.4645309 L-10.7272616,39.6295538 L-4.67602125,23.5193347 C-3.51937643,23.2656999 -2.23789152,22.9944386 -0.835785991,22.7087631 C5.08712993,21.501984 11.8937285,20.2928286 19.4764177,19.162937 C41.173958,15.9298007 64.6959673,13.989016 89.1780552,13.989016 C113.670305,13.989016 137.769831,15.9315819 160.419978,19.1686253 C168.341395,20.3007137 175.510242,21.5126093 181.795295,22.7226185 C183.985972,23.1443713 185.906877,23.53505 187.541641,23.8844264 C187.851473,23.9506428 188.138118,24.0126317 188.401243,24.0701842 L204.184494,34.0976258 L204.184494,44.7045571 Z" id="Rectangle-13" fill="#FF5722" fill-rule="nonzero" mask="url(#mask-9)"></path>
                        </g>
                        <g id="Voelsprieten" transform="translate(64.081472, 0.000000)">
                            <rect id="Rectangle-14" fill="#008EFF" x="22.8199737" y="35.3729977" width="9.00788436" height="46.1647597" rx="4.50394218"></rect>
                            <rect id="Rectangle-14-Copy" fill="#0078D9" x="101.48883" y="35.3729977" width="9.00788436" height="46.1647597" rx="4.50394218"></rect>
                            <ellipse id="Oval" fill="#FF5722" opacity="0.196841033" cx="27.3239159" cy="27.2791762" rx="20.718134" ry="20.6842105"></ellipse>
                            <ellipse id="Oval-Copy-2" fill="#FF5722" opacity="0.196841033" cx="105.992773" cy="27.8787185" rx="20.718134" ry="20.6842105"></ellipse>
                            <ellipse id="Oval" fill="#FF5722" opacity="0.196841033" cx="27.3239159" cy="27.2791762" rx="27.3239159" ry="27.2791762"></ellipse>
                            <ellipse id="Oval-Copy-3" fill="#FF5722" opacity="0.196841033" cx="105.992773" cy="27.8787185" rx="27.3239159" ry="27.2791762"></ellipse>
                            <g id="Group-3" transform="translate(14.412615, 14.389016)">
                                <mask id="mask-11" fill="white">
                                    <use xlink:href="#path-10"></use>
                                </mask>
                                <use id="Oval" fill="#FF5722" xlink:href="#path-10"></use>
                                <rect id="Rectangle-2" fill-opacity="0.15" fill="#000000" mask="url(#mask-11)" x="13.2115637" y="-3.597254" width="17.4152431" height="32.9748284"></rect>
                            </g>
                            <g id="Group-4" transform="translate(93.081472, 14.389016)">
                                <mask id="mask-13" fill="white">
                                    <use xlink:href="#path-12"></use>
                                </mask>
                                <use id="Oval-Copy" fill="#FF5722" xlink:href="#path-12"></use>
                                <rect id="Rectangle-2" fill-opacity="0.15" fill="#000000" mask="url(#mask-13)" x="12.6110381" y="-3.597254" width="17.4152431" height="32.9748284"></rect>
                            </g>
                        </g>
                        <path d="M69.4862024,212.237986 C72.2339243,212.237986 75.6148234,211.460207 76.6925099,208.940503 C77.7701963,206.420799 76.4579534,202.483673 77.8935611,200.546911 C80.847128,196.562288 85.7003942,199.65291 85.7003942,196.050343 C85.7003942,187.110155 78.4410533,179.8627 69.4862024,179.8627 C60.5313515,179.8627 53.2720105,187.110155 53.2720105,196.050343 C53.2720105,204.990532 60.5313515,212.237986 69.4862024,212.237986 Z" id="Oval-21" fill-opacity="0.15" fill="#FFFFFF"></path>
                        <path d="M196.197109,212.237986 C198.944831,212.237986 202.32573,211.460207 203.403417,208.940503 C204.481103,206.420799 203.16886,202.483673 204.604468,200.546911 C207.558035,196.562288 212.411301,199.65291 212.411301,196.050343 C212.411301,187.110155 205.15196,179.8627 196.197109,179.8627 C187.242258,179.8627 179.982917,187.110155 179.982917,196.050343 C179.982917,204.990532 187.242258,212.237986 196.197109,212.237986 Z" id="Oval-21-Copy" fill-opacity="0.15" fill="#FFFFFF" transform="translate(196.197109, 196.050343) scale(-1, 1) translate(-196.197109, -196.050343) "></path>
                    </g>
                </g>
                <g id="Bureau" transform="translate(0.000000, 323.000000)">
                    <g id="Group" transform="translate(16.000000, 0.000000)">
                        <rect id="Rectangle-10" fill="#424242" x="0" y="0" width="371" height="225"></rect>
                        <polygon id="Rectangle-10" fill-opacity="0.15" fill="#000000" points="178 0 371 0 371 225 178 225"></polygon>
                    </g>
                    <path d="M2.84217094e-14,9 L404,9 L404,24.0074602 C404,25.6601943 402.655146,27 401.008843,27 L2.99115733,27 C1.33918675,27 2.84217094e-14,25.6470745 2.84217094e-14,24.0074602 L2.84217094e-14,9 Z" id="Rectangle-10" fill="#757575"></path>
                    <path d="M0,2.99686968 C0,1.34174426 1.34485362,0 2.99115733,0 L401.008843,0 C402.660813,0 404,1.34739093 404,2.99686968 L404,9 L0,9 L0,2.99686968 Z" id="Rectangle-10" fill="#FFFFFF"></path>
                    <g id="Rectangle-11">
                        <use fill="black" fill-opacity="1" filter="url(#filter-15)" xlink:href="#path-14"></use>
                        <use fill="#FFFFFF" fill-rule="evenodd" xlink:href="#path-14"></use>
                    </g>
                </g>
                <g id="PC" transform="translate(0.000000, 176.000000)">
                    <path d="M46,139.5 C46,135.357864 49.3673714,132 53.4943332,132 L120.505667,132 C124.644673,132 128,135.366293 128,139.5 L128,147 L46,147 L46,139.5 Z" id="Rectangle-12" fill="#BDBDBD"></path>
                    <rect id="Rectangle-15" fill="#FF0D30" x="31" y="0" width="15" height="12" rx="6"></rect>
                    <rect id="Rectangle-15-Copy" fill="#424242" x="11" y="0" width="15" height="12" rx="6"></rect>
                    <g id="Group-3" transform="translate(0.000000, 5.000000)" fill="#BDBDBD">
                        <rect id="Rectangle-13" x="0" y="0" width="174" height="102" rx="8"></rect>
                    </g>
                    <ellipse id="Oval" fill-opacity="0.15" fill="#000000" cx="87" cy="71" rx="18" ry="18"></ellipse>
                    <g id="Group-2" transform="translate(81.000000, 68.000000)">
                        <mask id="mask-17" fill="white">
                            <use xlink:href="#path-16"></use>
                        </mask>
                        <use id="Rectangle-14" fill="#757575" xlink:href="#path-16"></use>
                        <rect id="Rectangle-14" fill-opacity="0.15" fill="#000000" mask="url(#mask-17)" x="0" y="0" width="12" height="75" rx="6"></rect>
                        <rect id="Rectangle-14" fill="#757575" mask="url(#mask-17)" x="-2" y="-2" width="12" height="75" rx="6"></rect>
                    </g>
                </g>
                <g id="Paper" transform="translate(287.000000, 283.000000)">
                    <g>
                        <mask id="mask-19" fill="white">
                            <use xlink:href="#path-18"></use>
                        </mask>
                        <use id="Combined-Shape" fill="#FFFFFF" xlink:href="#path-18"></use>
                        <rect id="Rectangle" fill-opacity="0.15" fill="#000000" mask="url(#mask-19)" x="8" y="37" width="102" height="3"></rect>
                        <rect id="Rectangle" fill-opacity="0.15" fill="#000000" mask="url(#mask-19)" x="8" y="29" width="111" height="3"></rect>
                        <rect id="Rectangle" fill-opacity="0.15" fill="#000000" mask="url(#mask-19)" x="4" y="21" width="106" height="3"></rect>
                        <rect id="Rectangle" fill-opacity="0.15" fill="#000000" mask="url(#mask-19)" x="-1" y="13" width="111" height="3"></rect>
                        <rect id="Rectangle" fill-opacity="0.15" fill="#000000" mask="url(#mask-19)" x="-1" y="5" width="120" height="3"></rect>
                    </g>
                    <g id="Paper-Copy-3" transform="translate(14.000000, 26.000000)"></g>
                    <g id="Paper-Copy-4" transform="translate(6.000000, 22.000000)"></g>
                    <g id="Paper-Copy-5" transform="translate(10.000000, 18.000000)"></g>
                    <g id="Paper-Copy-6" transform="translate(0.000000, 14.000000)"></g>
                    <g id="Paper-Copy-7" transform="translate(17.000000, 10.000000)"></g>
                    <g id="Paper-Copy-8" transform="translate(14.000000, 6.000000)"></g>
                    <g id="Paper-Copy-9" transform="translate(14.000000, 2.000000)"></g>
                </g>
            </g>
            <g id="Globe" transform="translate(385.000000, 323.000000)">
                <path d="M115.820853,213 L91.8262854,213 C90.1601524,213 88.8208534,214.341871 88.8208534,215.997152 L88.8208534,222.002848 C88.8208534,223.658377 90.1664311,225 91.8262854,225 L156.815421,225 C158.481554,225 159.820853,223.658129 159.820853,222.002848 L159.820853,215.997152 C159.820853,214.341623 158.475276,213 156.815421,213 L132.820853,213 L132.820853,180 L115.820853,180 L115.820853,213 Z" id="Combined-Shape" fill="#424242"></path>
                <g id="Group" transform="translate(95.122124, 113.834591) rotate(-300.000000) translate(-95.122124, -113.834591) translate(-6.877876, 63.834591)" fill="#424242">
                    <path d="M8.37506997,11.3688889 L3.00213934,11.3688889 C1.34410357,11.3688889 -1.42108547e-14,10.0264056 -1.42108547e-14,8.36962542 L-1.42108547e-14,3.85259681 C-1.42108547e-14,2.19614933 1.34305411,0.853333333 3.00213934,0.853333333 L200.997861,0.853333333 C202.655896,0.853333333 204,2.19581666 204,3.85259681 L204,8.36962542 C204,10.0260729 202.656946,11.3688889 200.997861,11.3688889 L194.87493,11.3688889 C192.33907,60.7456031 151.559431,100 101.625,100 C51.6905687,100 10.9109304,60.7456031 8.37506997,11.3688889 Z M185.13045,11.3688889 L18.8695498,11.3688889 C21.2071313,55.3191676 57.5320179,90.2355556 102,90.2355556 C146.467982,90.2355556 182.792869,55.3191676 185.13045,11.3688889 Z" id="Combined-Shape"></path>
                </g>
                <g id="Elements/-Planet" transform="translate(53.000000, 12.000000)">
                    <g id="Group-2" filter="url(#filter-20)" transform="translate(8.216000, 8.216000)">
                        <g id="Group-3">
                            <g id="Group-5">
                                <mask id="mask-22" fill="white">
                                    <use xlink:href="#path-21"></use>
                                </mask>
                                <use id="Oval-22" fill="#FF5722" xlink:href="#path-21"></use>
                                <path d="M32.4611949,168.223529 L-37.8085559,47.0536876 L49.3086975,-3.01993911 C52.4938828,-4.85073353 56.5662264,-3.76518494 58.404268,-0.595752715 L58.7746785,0.0429656208 C60.612838,3.21260121 59.526724,7.2628789 56.3356726,9.09704507 L27.5120209,25.6644266 C24.3286191,27.4941959 23.2355674,31.5466581 25.0727594,34.7146254 L25.442975,35.3530075 C27.2800492,38.5207716 31.3509385,39.6053527 34.5352974,37.7750333 L50.5509867,28.5779704 C53.7361721,26.747176 57.8085156,27.8327246 59.6465572,31.0021568 L60.0169677,31.6408751 C61.8551273,34.8105107 60.7690133,38.8607884 57.5779618,40.6949546 L41.5660977,49.8983222 C38.3784825,51.7305133 37.2895175,55.7806264 39.1267096,58.9485937 L39.4969251,59.5869759 C41.3339993,62.75474 45.4049454,63.8392885 48.5893743,62.0089288 L90.2292622,38.0834797 C93.4138933,36.2530038 97.4857876,37.3388106 99.3238292,40.5082429 L99.6942397,41.1469612 C101.532399,44.3165968 100.446129,48.3669641 97.2562373,50.2004639 L36.0863648,85.3599443 C32.895241,87.194152 31.8064691,91.2459574 33.6446286,94.415593 L34.0150391,95.0543113 C35.8530807,98.2237436 39.9266467,99.3085896 43.1133398,97.4769285 L113.890955,56.795069 C117.07614,54.9642746 121.148483,56.0498232 122.986525,59.2192554 L123.356936,59.8579737 C125.195095,63.0276093 124.108981,67.077887 120.91793,68.9120532 L76.4043331,94.508998 C73.4680229,96.4138513 72.5056346,100.304966 74.2827752,103.369384 L74.6531857,104.008102 C76.4302912,107.072459 80.2926435,108.190748 83.4215517,106.609158 L105.524498,93.9159343 C108.709683,92.0851399 112.782027,93.1706885 114.620069,96.3401207 L114.990479,96.9788391 C116.828639,100.148475 115.742525,104.198752 112.551473,106.032919 L68.9893107,131.071764 C65.8145063,132.896592 64.7187422,136.952416 66.5569018,140.122052 L66.9273123,140.76077 C68.7653539,143.930202 72.8347439,145.017449 76.0162858,143.188748 L86.7483299,137.020138 L32.4611949,168.223529 Z" id="Combined-Shape" fill-opacity="0.15" fill="#000000" mask="url(#mask-22)"></path>
                                <rect id="Rectangle-4" fill-opacity="0.15" fill="#000000" mask="url(#mask-22)" x="70.9506303" y="-29.7411765" width="113.894433" height="201.682353"></rect>
                            </g>
                        </g>
                    </g>
                </g>
            </g>
        </g>
    </g>
</svg>