<?xml version="1.0" encoding="UTF-8"?>
<svg width="60px" height="60px" viewBox="0 0 60 60" version="1.1" xmlns="http://www.w3.org/2000/svg" xmlns:xlink="http://www.w3.org/1999/xlink">
    <!-- Generator: Sketch 42 (36781) - http://www.bohemiancoding.com/sketch -->
    <title>Buttons/ Symbols/ Close</title>
    <desc>Created with Sketch.</desc>
    <defs>
        <rect id="path-1" x="2272" y="1804" width="2868" height="1687" rx="100"></rect>
        <mask id="mask-2" maskContentUnits="userSpaceOnUse" maskUnits="objectBoundingBox" x="0" y="0" width="2868" height="1687" fill="white">
            <use xlink:href="#path-1"></use>
        </mask>
    </defs>
    <g id="Symbols" stroke="none" stroke-width="1" fill="none" fill-rule="evenodd">
        <g id="Boxes" transform="translate(-4898.000000, -1946.000000)" stroke="#F6A623" stroke-width="50">
            <use id="Rectangle-30-Copy-2" mask="url(#mask-2)" xlink:href="#path-1"></use>
        </g>
        <g id="Buttons/-Symbols/-Close" fill-rule="nonzero" fill="#FFFFFF">
            <path d="M29.9989321,20.1015729 L12.9450125,3.04992313 C10.2111605,0.316435022 5.77900571,0.316729991 3.0455176,3.05058196 C0.312029497,5.78443393 0.312324466,10.2165888 3.04617643,12.9500769 L20.0994372,30.0010679 L3.05025253,47.0502525 C0.316582489,49.7839226 0.316582489,54.2160774 3.05025253,56.9497475 C5.78392257,59.6834175 10.2160774,59.6834175 12.9497475,56.9497475 L29.9995909,39.899904 L47.0520334,56.9500769 C49.7858854,59.683565 54.2180402,59.68327 56.9515283,56.949418 C59.6850164,54.2155661 59.6847215,49.7834112 56.9508695,47.0499231 L39.8990859,30.000409 L56.9497475,12.9497475 C59.6834175,10.2160774 59.6834175,5.78392257 56.9497475,3.05025253 C54.2160774,0.316582489 49.7839226,0.316582489 47.0502525,3.05025253 L29.9989321,20.1015729 Z" id="Combined-Shape"></path>
        </g>
    </g>
</svg>