<?xml version="1.0" encoding="UTF-8"?>
<svg width="60px" height="60px" viewBox="0 0 60 60" version="1.1" xmlns="http://www.w3.org/2000/svg" xmlns:xlink="http://www.w3.org/1999/xlink">
    <!-- Generator: Sketch 42 (36781) - http://www.bohemiancoding.com/sketch -->
    <title>Buttons/ Symbols/ Download</title>
    <desc>Created with Sketch.</desc>
    <defs>
        <rect id="path-1" x="2272" y="1804" width="2868" height="1687" rx="100"></rect>
        <mask id="mask-2" maskContentUnits="userSpaceOnUse" maskUnits="objectBoundingBox" x="0" y="0" width="2868" height="1687" fill="white">
            <use xlink:href="#path-1"></use>
        </mask>
    </defs>
    <g id="Symbols" stroke="none" stroke-width="1" fill="none" fill-rule="evenodd">
        <g id="Boxes" transform="translate(-4818.000000, -1946.000000)" stroke="#F6A623" stroke-width="50">
            <use id="Rectangle-30-Copy-2" mask="url(#mask-2)" xlink:href="#path-1"></use>
        </g>
        <g id="Buttons/-Symbols/-Download" fill="#FFFFFF">
            <path d="M3,48.9950291 C3,46.2363507 5.24136404,44 8.00226249,44 L52.9977375,44 C55.7604108,44 58,46.2338221 58,48.9950291 L58,53.0049709 C58,55.7636493 55.758636,58 52.9977375,58 L8.00226249,58 C5.2395892,58 3,55.7661779 3,53.0049709 L3,48.9950291 Z M24.4732577,23.1893393 L24.4732577,23.1893393 L24.4732577,2 L34.9562399,2 L34.9562399,22.7546193 L41.4130875,16.2192609 C43.6062264,13.999455 47.162007,13.999455 49.3551459,16.2192609 C51.5482847,18.4390668 51.5482847,22.0380832 49.3551459,24.2578891 L33.4710292,40.3351456 C31.2778903,42.5549515 27.7221097,42.5549515 25.5289708,40.3351456 L9.64485414,24.2578891 C7.45171529,22.0380832 7.45171529,18.4390668 9.64485414,16.2192609 C11.837993,13.999455 15.3937736,13.999455 17.5869125,16.2192609 L24.4732577,23.1893393 Z" id="Combined-Shape"></path>
        </g>
    </g>
</svg>