<svg width="100" height="110" viewBox="0 0 100 110" xmlns="http://www.w3.org/2000/svg" xmlns:xlink="http://www.w3.org/1999/xlink">
  <title>
    Dynamic elements/ Button/ Download (green - Click)
  </title>
  <defs>
    <filter x="-50%" y="-50%" width="200%" height="200%" filterUnits="objectBoundingBox" id="b">
      <feOffset dx="4" dy="8" in="SourceAlpha" result="shadowOffsetOuter1"/>
      <feColorMatrix values="0 0 0 0 0 0 0 0 0 0 0 0 0 0 0 0 0 0 0.15 0" in="shadowOffsetOuter1" result="shadowMatrixOuter1"/>
      <feMerge>
        <feMergeNode in="shadowMatrixOuter1"/>
        <feMergeNode in="SourceGraphic"/>
      </feMerge>
    </filter>
    <rect id="a" x="-457" y="-1128" width="2868" height="1687" rx="100"/>
    <mask id="c" x="0" y="0" width="2868" height="1687" fill="#fff">
      <use xlink:href="#a"/>
    </mask>
  </defs>
  <g fill="none" fill-rule="evenodd">
    <g>
      <g filter="url(#b)">
        <circle fill="#4CAF50" cx="50" cy="50" r="50"/>
        <g transform="translate(20 20)" fill="#FFF">
          <rect x="3" y="44" width="55" height="14" rx="5"/>
          <path d="M24.473 23.19l-6.886-6.97c-2.193-2.22-5.75-2.22-7.942 0-2.193 2.22-2.193 5.818 0 8.038L25.53 40.335c2.192 2.22 5.748 2.22 7.94 0l15.885-16.077c2.193-2.22 2.193-5.82 0-8.04-2.193-2.22-5.75-2.22-7.942 0l-6.457 6.537V2H24.473v21.19z" fill-rule="nonzero"/>
        </g>
      </g>
    </g>
    <use stroke="#F6A623" mask="url(#c)" stroke-width="50" xlink:href="#a"/>
  </g>
</svg>
