<?xml version="1.0" encoding="UTF-8"?>
<svg width="100px" height="110px" viewBox="0 0 100 110" version="1.1" xmlns="http://www.w3.org/2000/svg" xmlns:xlink="http://www.w3.org/1999/xlink">
    <!-- Generator: Sketch 42 (36781) - http://www.bohemiancoding.com/sketch -->
    <title>Dynamic elements/ Button/ Download (green)</title>
    <desc>Created with Sketch.</desc>
    <defs>
        <filter x="-50%" y="-50%" width="200%" height="200%" filterUnits="objectBoundingBox" id="filter-1">
            <feOffset dx="4" dy="8" in="SourceAlpha" result="shadowOffsetOuter1"></feOffset>
            <feColorMatrix values="0 0 0 0 0   0 0 0 0 0   0 0 0 0 0  0 0 0 0.15 0" type="matrix" in="shadowOffsetOuter1" result="shadowMatrixOuter1"></feColorMatrix>
            <feMerge>
                <feMergeNode in="shadowMatrixOuter1"></feMergeNode>
                <feMergeNode in="SourceGraphic"></feMergeNode>
            </feMerge>
        </filter>
        <rect id="path-2" x="-457" y="-292" width="2868" height="1687" rx="100"></rect>
        <mask id="mask-3" maskContentUnits="userSpaceOnUse" maskUnits="objectBoundingBox" x="0" y="0" width="2868" height="1687" fill="white">
            <use xlink:href="#path-2"></use>
        </mask>
    </defs>
    <g id="Symbols" stroke="none" stroke-width="1" fill="none" fill-rule="evenodd">
        <g id="Dynamic-elements/-Button/-Download-(green)">
            <g id="Group-2" filter="url(#filter-1)">
                <path d="M0,50 C0,22.3857625 22.3857625,0 50,0 C77.6142375,0 100,22.3857625 100,50 L100,60 C100,60.4884164 99.992997,60.9751972 99.9790858,61.4602474 C99.2064849,88.3991139 77.1258211,110 50,110 C22.9708078,110 0.950892653,88.5527352 0.0299811918,61.747932 C0.0100481178,61.1677437 0,60.5850453 0,60 L0,50 Z" id="Combined-Shape" fill="#4CAF50"></path>
                <path d="M100,60 L100,50 C100,22.3857625 77.6142375,0 50,0 C22.3857625,0 2.13162821e-14,22.3857625 2.13162821e-14,50 L2.13162821e-14,60 C1.42108547e-14,32.3857625 22.3857625,10 50,10 C77.6142375,10 100,32.3857625 100,60 L100,60 Z" id="Combined-Shape" fill-opacity="0.15" fill="#000000"></path>
                <g id="Symbol/-Download" transform="translate(20.000000, 30.000000)" fill="#FFFFFF">
                    <path d="M39.5539223,14.8051597 L43.4422279,18.6934653 L30.4986251,31.639818 L17.5550222,18.6934653 L21.4433278,14.8051597 L27.7487626,21.1105945 L27.7487626,3 L33.2484876,3 L33.2484876,21.1105945 L39.5539223,14.8051597 Z M52.4975251,36.0010999 C55.5333733,36.0010999 57.9972501,38.4649768 57.9972501,41.500825 L57.9972501,52.500275 C57.9972501,55.5306235 55.5333733,58 52.4975251,58 L8.49972501,58 C5.46662667,58 3,55.5306235 3,52.500275 L3,41.500825 C3,38.4649768 5.46662667,36.0010999 8.49972501,36.0010999 L52.4975251,36.0010999 Z M38.7482126,49.7476599 C40.2688866,49.7476599 41.4980751,48.5184713 41.4980751,46.9977974 C41.4980751,45.4771234 40.2688866,44.2479349 38.7482126,44.2479349 C37.2275386,44.2479349 35.9983501,45.4771234 35.9983501,46.9977974 C35.9983501,48.5184713 37.2275386,49.7476599 38.7482126,49.7476599 Z M46.9978001,49.7476599 C48.5184741,49.7476599 49.7476626,48.5184713 49.7476626,46.9977974 C49.7476626,45.4771234 48.5184741,44.2479349 46.9978001,44.2479349 C45.4771261,44.2479349 44.2479376,45.4771234 44.2479376,46.9977974 C44.2479376,48.5184713 45.4771261,49.7476599 46.9978001,49.7476599 Z" id="Combined-Shape"></path>
                </g>
            </g>
        </g>
        <use id="Rectangle-30-Copy-2" stroke="#F6A623" mask="url(#mask-3)" stroke-width="50" xlink:href="#path-2"></use>
    </g>
</svg>