<?xml version="1.0" encoding="UTF-8"?>
<svg width="70px" height="60px" viewBox="0 0 70 60" version="1.1" xmlns="http://www.w3.org/2000/svg" xmlns:xlink="http://www.w3.org/1999/xlink">
    <!-- Generator: Sketch 42 (36781) - http://www.bohemiancoding.com/sketch -->
    <title>Buttons/ Symbols/ OK</title>
    <desc>Created with Sketch.</desc>
    <defs>
        <rect id="path-1" x="2272" y="1804" width="2868" height="1687" rx="100"></rect>
        <mask id="mask-2" maskContentUnits="userSpaceOnUse" maskUnits="objectBoundingBox" x="0" y="0" width="2868" height="1687" fill="white">
            <use xlink:href="#path-1"></use>
        </mask>
    </defs>
    <g id="Symbols" stroke="none" stroke-width="1" fill="none" fill-rule="evenodd">
        <g id="Boxes" transform="translate(-4968.000000, -1946.000000)" stroke="#F6A623" stroke-width="50">
            <use id="Rectangle-30-Copy-2" mask="url(#mask-2)" xlink:href="#path-1"></use>
        </g>
        <g id="Buttons/-Symbols/-OK" fill="#FFFFFF">
            <path d="M18.95,11.15 C23.883358,11.15 28.1666485,12.9333155 31.8,16.5 C35.4333515,20.0666845 37.25,24.4916403 37.25,29.775 C37.25,35.0583598 35.516684,39.5583148 32.05,43.275 C28.583316,46.9916853 24.316692,48.85 19.25,48.85 C14.183308,48.85 9.87501775,47.016685 6.325,43.35 C2.77498225,39.683315 1,35.316692 1,30.25 C1,27.4833195 1.499995,24.8916788 2.5,22.475 C3.500005,20.0583213 4.833325,18.0333415 6.5,16.4 C8.166675,14.7666585 10.0833225,13.483338 12.25,12.55 C14.4166775,11.616662 16.6499885,11.15 18.95,11.15 Z M12.725,37.225 C14.6416762,39.0750093 16.7833215,40 19.15,40 C21.5166785,40 23.6499905,39.100009 25.55,37.3 C27.4500095,35.499991 28.4,33.0833485 28.4,30.05 C28.4,27.0166515 27.4416762,24.5833425 25.525,22.75 C23.6083237,20.9166575 21.4666785,20 19.1,20 C16.7333215,20 14.6000095,20.9249907 12.7,22.775 C10.7999905,24.6250092 9.85,27.0333185 9.85,30 C9.85,32.9666815 10.8083237,35.3749908 12.725,37.225 Z M56.2,29.85 C61.3000255,34.7500245 64.916656,38.433321 67.05,40.9 C68.1500055,42.1333395 68.7,43.1749958 68.7,44.025 C68.7,44.8750043 68.03334,45.8749943 66.7,47.025 C65.36666,48.1750057 64.2750042,48.75 63.425,48.75 C62.5749957,48.75 61.550006,48.050007 60.35,46.65 L49.35,34.1 L49.35,43.85 C49.35,44.650004 49.3250002,45.2333315 49.275,45.6 C49.2249998,45.9666685 49.066668,46.3999975 48.8,46.9 C48.333331,47.8000045 47.033344,48.25 44.9,48.25 C42.566655,48.25 41.200002,47.616673 40.8,46.35 C40.599999,45.816664 40.5,44.9666725 40.5,43.8 L40.5,16 C40.5,15.2333295 40.5249997,14.6583353 40.575,14.275 C40.6250002,13.8916647 40.783332,13.4500025 41.05,12.95 C41.516669,12.0499955 42.816656,11.6 44.95,11.6 C47.283345,11.6 48.6666645,12.2166605 49.1,13.45 C49.2666675,14.0166695 49.35,14.8833275 49.35,16.05 L49.35,25.6 C53.883356,20.4999745 57.549986,16.316683 60.35,13.05 C61.5166725,11.6833265 62.533329,11 63.4,11 C64.266671,11 65.36666,11.5749943 66.7,12.725 C68.03334,13.8750057 68.7,14.8749957 68.7,15.725 C68.7,16.5750042 68.200005,17.5833275 67.2,18.75 C65.266657,20.9833445 62.266687,24.0499805 58.2,27.95 L56.2,29.85 Z" id="OK"></path>
        </g>
    </g>
</svg>